# xmcd CD database file
#
# Track frame offsets:
#	150
#	25300
#	41262
#	65125
#	82775
#	102125
#	117862
#	131850
#	148850
#	168487
#	189712
#	210375
#	228837
#	256775
#	283600
#	299612
#
# Disc length: 4213 seconds
#
# Revision: 0
# Processed by: cddbd v1.5PL3 Copyright (c) Steve Scherf et al.
# Submitted via: CDex 1.50beta8
#
DISCID=e8107310
DTITLE=南佳孝 - 夏の終りに僕は君を失う
DYEAR=1993
DGENRE=Pop
TTITLE0=夕陽追って
TTITLE1=忘れられた夏
TTITLE2=ＣＯＯＬ
TTITLE3=夜の翼
TTITLE4=風にさらわれて
TTITLE5=夜間飛行
TTITLE6=君の笑顔
TTITLE7=Ｂａｃｋｓｔｒｏｋｅ　Ｓｗｉｍｍｅｒ
TTITLE8=Ｃｈａｔ　Ｎｏｉｒ
TTITLE9=Ｗｉｎｔｅｒ　Ｓｑｕａｒｅ
TTITLE10=ブルーメロディー
TTITLE11=風の旅人
TTITLE12=どこか遠くヘ
TTITLE13=鯨は泣いている
TTITLE14=Ｓｉｍｐｌｅ　Ｓｏｎｇ
TTITLE15=Ｌｏｓｉｎｇ
EXTD=YEAR: 1993
EXTT0=
EXTT1=
EXTT2=
EXTT3=
EXTT4=
EXTT5=
EXTT6=
EXTT7=
EXTT8=
EXTT9=
EXTT10=
EXTT11=
EXTT12=
EXTT13=
EXTT14=
EXTT15=
PLAYORDER=
